<?xml version="1.0" encoding="UTF-8"?>
<svg xmlns="http://www.w3.org/2000/svg" viewBox="0 0 429.48 370.89">
  <defs>
    <style>
      .cls-1, .cls-2, .cls-3, .cls-4, .cls-5 {
        fill: #fff;
      }

      .cls-1, .cls-6, .cls-7, .cls-8 {
        stroke-miterlimit: 10;
      }

      .cls-1, .cls-7, .cls-8, .cls-9 {
        stroke: #263238;
      }

      .cls-10 {
        opacity: .2;
      }

      .cls-10, .cls-6, .cls-11, .cls-12 {
        stroke: #fff;
      }

      .cls-10, .cls-6, .cls-11, .cls-12, .cls-8, .cls-9 {
        fill: none;
      }

      .cls-10, .cls-11, .cls-12, .cls-9 {
        stroke-linecap: round;
        stroke-linejoin: round;
      }

      .cls-13 {
        opacity: .3;
      }

      .cls-13, .cls-14 {
        isolation: isolate;
      }

      .cls-13, .cls-14, .cls-7, .cls-15 {
        fill: #c6ff00;
      }

      .cls-3, .cls-16 {
        opacity: .1;
      }

      .cls-4, .cls-14 {
        opacity: .5;
      }

      .cls-5 {
        opacity: .7;
      }

      .cls-12 {
        stroke-width: 2px;
      }

      .cls-17 {
        fill: #263238;
      }
    </style>
  </defs>
  <g id="Background_Simple" data-name="Background Simple">
    <g>
      <path class="cls-15" d="m289.88,15.58c-19.15,11.39-34.41,28.27-52.57,41.17-23.13,16.44-50.44,26.03-77.97,32.91-34.3,8.57-72.44,14.84-95.51,41.63-19.84,23.04-23.34,56.38-18.28,86.36,23.43,138.78,246.86,130.96,317.34,39.48,37.52-48.7,110.42-202.22,30.96-246.92-3.55-1.99-7.33-3.6-11.18-4.9-29.42-9.95-66.16-5.55-92.79,10.27Z"/>
      <path class="cls-5" d="m289.88,15.58c-19.15,11.39-34.41,28.27-52.57,41.17-23.13,16.44-50.44,26.03-77.97,32.91-34.3,8.57-72.44,14.84-95.51,41.63-19.84,23.04-23.34,56.38-18.28,86.36,23.43,138.78,246.86,130.96,317.34,39.48,37.52-48.7,110.42-202.22,30.96-246.92-3.55-1.99-7.33-3.6-11.18-4.9-29.42-9.95-66.16-5.55-92.79,10.27Z"/>
    </g>
  </g>
  <g id="Plants">
    <g id="freepik--Plants--inject-2">
      <path class="cls-15" d="m387.89,274.66s2.41-2.93,2.54-3.13c1.48-2.37,2.95-7.81.93-10.23-1.36-1.53-3.7-1.67-5.22-.31-.1.09-.2.19-.29.29-1.53,1.58-1.71,4.31-1.38,6.37.37,2.43,3.42,7.01,3.43,7.01Z"/>
      <path class="cls-15" d="m411.69,263.41c-.11-.08-.22-.15-.33-.23-2.71-1.58-7.83.81-9.92,2.68-.18.17-2.66,3.03-2.66,3.03l.05.02c-.8.37-1.66.78-2.62,1.24-1.7.88-3.67,1.87-5.7,3.09-2.22,1.3-4.35,2.73-6.4,4.28-2.3,1.72-4.44,3.65-6.39,5.74l1.46-3.27c.81-2.68.79-8.33-1.79-10.11-1.71-1.12-4-.64-5.12,1.07-.08.11-.14.24-.21.36-1.06,1.94-.5,4.61.35,6.52.97,2.15,4.8,5.54,5.1,5.81-1.94,2.18-3.74,4.51-5.37,6.93-.96,1.41-1.88,2.86-2.78,4.32l.66-1.47c.81-2.68.8-8.33-1.78-10.11-1.71-1.12-4.02-.63-5.14,1.09l-.19.34c-1.06,1.94-.51,4.61.34,6.52.85,1.91,4.08,4.89,4.94,5.65l-1.04,1.7c-1.62,2.72-3.24,5.43-4.91,8.05-.59.92-1.2,1.81-1.81,2.7l.56-1.26c.81-2.69.79-8.34-1.79-10.12-1.71-1.12-4.02-.63-5.14,1.09-.06.11-.13.23-.19.34-1.07,1.95-.51,4.61.35,6.53.86,1.92,3.76,4.59,4.78,5.51-.65.9-1.3,1.79-1.97,2.62-.48.57-.89,1.14-1.39,1.67-.5.53-.98,1.07-1.45,1.61-.96.99-1.95,2.02-2.9,2.96-.66.66-1.31,1.28-1.96,1.9.59-.92,1.73-2.72,1.8-2.88.97-2.26,1.36-4.73,1.11-7.18.11-.25.21-.5.28-.77.6-1.96-.5-4.03-2.46-4.64-.13-.03-.25-.07-.39-.1-3.1-.5-7.02,3.57-8.3,6.06-.07.15-.72,1.83-1.1,2.9.14-.66.27-1.3.39-1.99.25-1.35.47-2.71.71-4.17.1-.71.18-1.43.28-2.14s.13-1.49.2-2.25c.12-1.73.16-3.5.16-5.29,1.2.23,5.4.95,7.44.47,2.04-.48,4.5-1.66,5.38-3.69.89-1.84.11-4.07-1.73-4.96-.12-.05-.24-.11-.36-.15-2.99-.96-7.49,2.46-9.12,4.74-.07.15-1.1,1.89-1.62,2.87,0-1.07,0-2.14-.06-3.22-.12-3.13-.34-6.29-.55-9.45l-.18-2.9c.42.08,5.42,1.06,7.71.52,2.04-.48,4.49-1.68,5.39-3.7.86-1.86.05-4.06-1.82-4.92-.24-.12-.52-.21-.79-.26-2.99-.96-7.48,2.47-9.12,4.73-.09.2-1.54,2.71-1.88,3.37-.12-2.11-.23-4.24-.24-6.33-.05-2.84.11-5.66.44-8.47.17.08,5.4,1.11,7.75.52,2.04-.48,4.5-1.66,5.38-3.69.88-1.85.1-4.06-1.74-4.95-.12-.05-.24-.11-.36-.15-2.99-.96-7.48,2.47-9.11,4.73-.07.16-1.2,2.07-1.7,3.01l-.15-.07c.4-2.81,1.05-5.57,1.94-8.26.49-1.49,1.02-2.89,1.57-4.24.95.3,5.31,1.58,7.48,1.32,2.17-.27,4.65-1.15,5.76-3.07,1.08-1.75.55-4.04-1.2-5.13-.11-.08-.21-.13-.33-.19-2.87-1.28-7.71,1.63-9.58,3.7-.06.14-1.01,1.39-1.66,2.31l.8-1.79c.97-2.17,2-4.09,2.92-5.77.53-.96,1.02-1.82,1.51-2.61,1.08-.21,5.44-1.06,7.2-2.28,1.76-1.22,3.59-3.16,3.71-5.37.17-2.04-1.34-3.82-3.37-4-.15-.01-.28,0-.43,0-3.13.18-6.14,4.97-6.8,7.71-.1.22-.59,3.97-.49,4.02-.48.76-.98,1.58-1.5,2.48-.96,1.67-2.03,3.58-3.06,5.72-.38.79-.75,1.59-1.11,2.4-.67,1.54-1.3,3.11-1.86,4.7-.98,2.7-1.7,5.48-2.18,8.32l-.04.1c-.12-.92-.58-3.44-.64-3.63-.81-2.68-3.94-7.4-7.09-7.46-2.06.02-3.69,1.7-3.68,3.75,0,.13,0,.26.02.39.28,2.12,2.19,4.08,3.96,5.2,2.03,1.29,7.06,1.97,7.46,2.04-.41,2.89-.63,5.81-.65,8.73-.02,1.71,0,3.42.05,5.15-.13-.79-.27-1.49-.3-1.58-.81-2.68-3.94-7.39-7.09-7.45-2.06.02-3.7,1.69-3.68,3.74,0,.14,0,.28.02.41.18,2.21,2.08,4.1,3.88,5.25,1.81,1.15,6.1,1.83,7.26,1.95.03.66.05,1.32.08,1.98.13,3.16.3,6.33.34,9.42.03,1.11,0,2.18-.01,3.25-.13-.7-.24-1.28-.24-1.41-.81-2.68-3.94-7.39-7.09-7.45-2.05,0-3.7,1.65-3.69,3.7,0,.17,0,.34.03.51.18,2.21,2.07,4.11,3.88,5.25s5.72,1.78,7.03,1.96c-.05,1.1-.1,2.21-.17,3.29-.08.73-.11,1.44-.24,2.16-.13.72-.21,1.43-.32,2.14-.26,1.36-.51,2.76-.79,4.07-.19.92-.39,1.8-.58,2.66,0-1.09-.06-3.21-.09-3.39-.4-2.78-2.79-7.9-5.87-8.43-2.03-.27-3.9,1.16-4.17,3.19-.02.12-.03.24-.03.36-.15,2.2,1.48,4.39,3.05,5.77,1.74,1.51,6.44,2.95,7.02,3.14-.33,1.44-.67,2.86-1,4.18-1.15,4.58-2.29,8.35-3.12,10.98-.1.33-.2.65-.3.93l1.89.88c.14-.37.22-.79.36-1.25.78-2.68,1.84-6.52,2.9-11.17.35-1.47.67-3.05,1.01-4.67,1.58.06,3.15.03,4.73-.08.76,2.24,3.67,5.78,4.05,6.24-1.07,1.02-2.12,2.01-3.14,2.92-3.49,3.2-6.48,5.73-8.66,7.45-.34.25-.64.5-.91.73l2.2,1.04s.08-.07.12-.1c2.11-1.81,5.13-4.42,8.59-7.71,1.09-1.04,2.27-2.15,3.42-3.35.49.36,4.49,3.22,6.75,3.69,2.06.41,4.78.37,6.44-1.11,1.57-1.3,1.8-3.65.49-5.23-.07-.1-.17-.2-.26-.29-2.31-2.13-7.83-.9-10.27.47-.15.09-1.61,1.14-2.52,1.82.48-.48.92-.89,1.43-1.43.96-.99,1.89-2.01,2.9-3.1.46-.54.94-1.08,1.41-1.64.47-.56.93-1.16,1.4-1.75,1.06-1.39,2.08-2.84,3.06-4.33.87.83,3.98,3.78,5.95,4.49,1.97.71,4.71,1.12,6.56-.09,1.77-1.03,2.36-3.3,1.33-5.06-.07-.11-.14-.22-.22-.33-1.95-2.45-7.59-2.1-10.21-1.08-.17.05-1.96.97-2.94,1.5.58-.9,1.17-1.79,1.73-2.72,1.63-2.67,3.19-5.44,4.75-8.19.49-.85.97-1.68,1.46-2.51.3.3,3.93,3.87,6.14,4.68,1.96.72,4.72,1.11,6.56-.09,1.77-1.04,2.36-3.32,1.32-5.09-.06-.1-.13-.21-.2-.31-1.97-2.45-7.59-2.1-10.22-1.08-.2.08-2.76,1.37-3.41,1.79,1.07-1.84,2.15-3.67,3.3-5.42,1.53-2.39,3.22-4.69,5.04-6.87.14.14,3.92,3.89,6.18,4.72,1.96.71,4.66,1.09,6.56-.1,1.76-1.05,2.33-3.34,1.27-5.09-.06-.12-.13-.23-.22-.33-1.95-2.45-7.59-2.1-10.22-1.08-.17.07-2.14,1.08-3.07,1.58l-.11-.14c1.89-2.13,3.96-4.08,6.21-5.84,1.22-.98,2.45-1.85,3.65-2.68.63.78,3.55,4.26,5.48,5.22,1.93.96,4.5,1.59,6.5.6,1.87-.85,2.68-3.04,1.84-4.9-.06-.12-.13-.24-.19-.36-1.68-2.66-7.32-2.9-10.03-2.2-.15.04-1.57.6-2.66,1,.55-.36,1.11-.74,1.65-1.07,2-1.27,3.92-2.31,5.61-3.21.98-.51,1.87-.95,2.72-1.39,1.01.45,5.11,2.12,7.26,2.08,2.14-.04,4.74-.67,6.07-2.5,1.26-1.61.97-3.95-.64-5.21Z"/>
      <path class="cls-15" d="m337.56,250.81c1.65,1.81,6.73,3.95,6.73,3.95,0,0,.37-3.74.39-4.01-.05-2.8-1.84-8.17-4.85-9.06-1.99-.52-4.03.66-4.55,2.65-.03.12-.06.25-.08.37-.4,2.18.95,4.53,2.36,6.09Z"/>
      <path class="cls-14" d="m411.69,263.41c-.11-.08-.22-.15-.33-.23-2.71-1.58-7.83.81-9.92,2.68-.18.17-2.66,3.03-2.66,3.03l.05.02c-.8.37-1.66.78-2.62,1.24-1.7.88-3.67,1.87-5.7,3.09-2.22,1.3-4.35,2.73-6.4,4.28-2.3,1.72-4.44,3.65-6.39,5.74l1.46-3.27c.81-2.68.79-8.33-1.79-10.11-1.71-1.12-4-.64-5.12,1.07-.08.11-.14.24-.21.36-1.06,1.94-.5,4.61.35,6.52.97,2.15,4.8,5.54,5.1,5.81-1.94,2.18-3.74,4.51-5.37,6.93-.96,1.41-1.88,2.86-2.78,4.32l.66-1.47c.81-2.68.8-8.33-1.78-10.11-1.71-1.12-4.02-.63-5.14,1.09l-.19.34c-1.06,1.94-.51,4.61.34,6.52.85,1.91,4.08,4.89,4.94,5.65l-1.04,1.7c-1.62,2.72-3.24,5.43-4.91,8.05-.59.92-1.2,1.81-1.81,2.7l.56-1.26c.81-2.69.79-8.34-1.79-10.12-1.71-1.12-4.02-.63-5.14,1.09-.06.11-.13.23-.19.34-1.07,1.95-.51,4.61.35,6.53.86,1.92,3.76,4.59,4.78,5.51-.65.9-1.3,1.79-1.97,2.62-.48.57-.89,1.14-1.39,1.67-.5.53-.98,1.07-1.45,1.61-.96.99-1.95,2.02-2.9,2.96-.66.66-1.31,1.28-1.96,1.9.59-.92,1.73-2.72,1.8-2.88.97-2.26,1.36-4.73,1.11-7.18.11-.25.21-.5.28-.77.6-1.96-.5-4.03-2.46-4.64-.13-.03-.25-.07-.39-.1-3.1-.5-7.02,3.57-8.3,6.06-.07.15-.72,1.83-1.1,2.9.14-.66.27-1.3.39-1.99.25-1.35.47-2.71.71-4.17.1-.71.18-1.43.28-2.14s.13-1.49.2-2.25c.12-1.73.16-3.5.16-5.29,1.2.23,5.4.95,7.44.47,2.04-.48,4.5-1.66,5.38-3.69.89-1.84.11-4.07-1.73-4.96-.12-.05-.24-.11-.36-.15-2.99-.96-7.49,2.46-9.12,4.74-.07.15-1.1,1.89-1.62,2.87,0-1.07,0-2.14-.06-3.22-.12-3.13-.34-6.29-.55-9.45l-.18-2.9c.42.08,5.42,1.06,7.71.52,2.04-.48,4.49-1.68,5.39-3.7.86-1.86.05-4.06-1.82-4.92-.24-.12-.52-.21-.79-.26-2.99-.96-7.48,2.47-9.12,4.73-.09.2-1.54,2.71-1.88,3.37-.12-2.11-.23-4.24-.24-6.33-.05-2.84.11-5.66.44-8.47.17.08,5.4,1.11,7.75.52,2.04-.48,4.5-1.66,5.38-3.69.88-1.85.1-4.06-1.74-4.95-.12-.05-.24-.11-.36-.15-2.99-.96-7.48,2.47-9.11,4.73-.07.16-1.2,2.07-1.7,3.01l-.15-.07c.4-2.81,1.05-5.57,1.94-8.26.49-1.49,1.02-2.89,1.57-4.24.95.3,5.31,1.58,7.48,1.32,2.17-.27,4.65-1.15,5.76-3.07,1.08-1.75.55-4.04-1.2-5.13-.11-.08-.21-.13-.33-.19-2.87-1.28-7.71,1.63-9.58,3.7-.06.14-1.01,1.39-1.66,2.31l.8-1.79c.97-2.17,2-4.09,2.92-5.77.53-.96,1.02-1.82,1.51-2.61,1.08-.21,5.44-1.06,7.2-2.28,1.76-1.22,3.59-3.16,3.71-5.37.17-2.04-1.34-3.82-3.37-4-.15-.01-.28,0-.43,0-3.13.18-6.14,4.97-6.8,7.71-.1.22-.59,3.97-.49,4.02-.48.76-.98,1.58-1.5,2.48-.96,1.67-2.03,3.58-3.06,5.72-.38.79-.75,1.59-1.11,2.4-.67,1.54-1.3,3.11-1.86,4.7-.98,2.7-1.7,5.48-2.18,8.32l-.04.1c-.12-.92-.58-3.44-.64-3.63-.81-2.68-3.94-7.4-7.09-7.46-2.06.02-3.69,1.7-3.68,3.75,0,.13,0,.26.02.39.28,2.12,2.19,4.08,3.96,5.2,2.03,1.29,7.06,1.97,7.46,2.04-.41,2.89-.63,5.81-.65,8.73-.02,1.71,0,3.42.05,5.15-.13-.79-.27-1.49-.3-1.58-.81-2.68-3.94-7.39-7.09-7.45-2.06.02-3.7,1.69-3.68,3.74,0,.14,0,.28.02.41.18,2.21,2.08,4.1,3.88,5.25,1.81,1.15,6.1,1.83,7.26,1.95.03.66.05,1.32.08,1.98.13,3.16.3,6.33.34,9.42.03,1.11,0,2.18-.01,3.25-.13-.7-.24-1.28-.24-1.41-.81-2.68-3.94-7.39-7.09-7.45-2.05,0-3.7,1.65-3.69,3.7,0,.17,0,.34.03.51.18,2.21,2.07,4.11,3.88,5.25s5.72,1.78,7.03,1.96c-.05,1.1-.1,2.21-.17,3.29-.08.73-.11,1.44-.24,2.16-.13.72-.21,1.43-.32,2.14-.26,1.36-.51,2.76-.79,4.07-.19.92-.39,1.8-.58,2.66,0-1.09-.06-3.21-.09-3.39-.4-2.78-2.79-7.9-5.87-8.43-2.03-.27-3.9,1.16-4.17,3.19-.02.12-.03.24-.03.36-.15,2.2,1.48,4.39,3.05,5.77,1.74,1.51,6.44,2.95,7.02,3.14-.33,1.44-.67,2.86-1,4.18-1.15,4.58-2.29,8.35-3.12,10.98-.1.33-.2.65-.3.93l1.89.88c.14-.37.22-.79.36-1.25.78-2.68,1.84-6.52,2.9-11.17.35-1.47.67-3.05,1.01-4.67,1.58.06,3.15.03,4.73-.08.76,2.24,3.67,5.78,4.05,6.24-1.07,1.02-2.12,2.01-3.14,2.92-3.49,3.2-6.48,5.73-8.66,7.45-.34.25-.64.5-.91.73l2.2,1.04s.08-.07.12-.1c2.11-1.81,5.13-4.42,8.59-7.71,1.09-1.04,2.27-2.15,3.42-3.35.49.36,4.49,3.22,6.75,3.69,2.06.41,4.78.37,6.44-1.11,1.57-1.3,1.8-3.65.49-5.23-.07-.1-.17-.2-.26-.29-2.31-2.13-7.83-.9-10.27.47-.15.09-1.61,1.14-2.52,1.82.48-.48.92-.89,1.43-1.43.96-.99,1.89-2.01,2.9-3.1.46-.54.94-1.08,1.41-1.64.47-.56.93-1.16,1.4-1.75,1.06-1.39,2.08-2.84,3.06-4.33.87.83,3.98,3.78,5.95,4.49,1.97.71,4.71,1.12,6.56-.09,1.77-1.03,2.36-3.3,1.33-5.06-.07-.11-.14-.22-.22-.33-1.95-2.45-7.59-2.1-10.21-1.08-.17.05-1.96.97-2.94,1.5.58-.9,1.17-1.79,1.73-2.72,1.63-2.67,3.19-5.44,4.75-8.19.49-.85.97-1.68,1.46-2.51.3.3,3.93,3.87,6.14,4.68,1.96.72,4.72,1.11,6.56-.09,1.77-1.04,2.36-3.32,1.32-5.09-.06-.1-.13-.21-.2-.31-1.97-2.45-7.59-2.1-10.22-1.08-.2.08-2.76,1.37-3.41,1.79,1.07-1.84,2.15-3.67,3.3-5.42,1.53-2.39,3.22-4.69,5.04-6.87.14.14,3.92,3.89,6.18,4.72,1.96.71,4.66,1.09,6.56-.1,1.76-1.05,2.33-3.34,1.27-5.09-.06-.12-.13-.23-.22-.33-1.95-2.45-7.59-2.1-10.22-1.08-.17.07-2.14,1.08-3.07,1.58l-.11-.14c1.89-2.13,3.96-4.08,6.21-5.84,1.22-.98,2.45-1.85,3.65-2.68.63.78,3.55,4.26,5.48,5.22,1.93.96,4.5,1.59,6.5.6,1.87-.85,2.68-3.04,1.84-4.9-.06-.12-.13-.24-.19-.36-1.68-2.66-7.32-2.9-10.03-2.2-.15.04-1.57.6-2.66,1,.55-.36,1.11-.74,1.65-1.07,2-1.27,3.92-2.31,5.61-3.21.98-.51,1.87-.95,2.72-1.39,1.01.45,5.11,2.12,7.26,2.08,2.14-.04,4.74-.67,6.07-2.5,1.26-1.61.97-3.95-.64-5.21Z"/>
      <path class="cls-13" d="m387.89,274.66s2.41-2.93,2.54-3.13c1.48-2.37,2.95-7.81.93-10.23-1.36-1.53-3.7-1.67-5.22-.31-.1.09-.2.19-.29.29-1.53,1.58-1.71,4.31-1.38,6.37.37,2.43,3.42,7.01,3.43,7.01Z"/>
      <path class="cls-13" d="m337.56,250.81c1.65,1.81,6.73,3.95,6.73,3.95,0,0,.37-3.74.39-4.01-.05-2.8-1.84-8.17-4.85-9.06-1.99-.52-4.03.66-4.55,2.65-.03.12-.06.25-.08.37-.4,2.18.95,4.53,2.36,6.09Z"/>
    </g>
    <g id="freepik--Plants--inject-2-2" data-name="freepik--Plants--inject-2">
      <path class="cls-15" d="m99.26,273.87s-.36-3.51-.4-3.73c-.6-2.54-3.23-7.08-6.16-7.34-1.9-.11-3.53,1.35-3.64,3.25,0,.13,0,.26,0,.39.04,2.05,1.73,3.96,3.31,5.1,1.85,1.35,6.88,2.34,6.89,2.34Z"/>
      <path class="cls-15" d="m107.45,250.73c-.12.02-.24.05-.37.07-2.82.76-4.61,5.71-4.74,8.32,0,.23.26,3.75.26,3.75l.05-.02c-.28.77-.57,1.61-.9,2.54-.53,1.7-1.17,3.65-1.7,5.8-.6,2.32-1.05,4.67-1.37,7.04-.37,2.65-.5,5.33-.4,8l-1.2-3.11c-1.24-2.29-5-5.99-7.87-5.45-1.87.4-3.05,2.22-2.65,4.09.02.12.06.25.1.38.58,1.97,2.72,3.36,4.54,4.05,2.06.78,6.81.46,7.19.44.17,2.72.52,5.43,1.06,8.1.3,1.56.66,3.12,1.03,4.68l-.54-1.4c-1.24-2.29-4.99-5.99-7.86-5.46-1.87.4-3.06,2.25-2.66,4.11l.1.35c.58,1.97,2.71,3.36,4.53,4.05,1.82.69,5.91.51,6.98.45l.44,1.8c.73,2.86,1.46,5.71,2.1,8.53.22,1,.41,1.98.6,2.97l-.46-1.2c-1.24-2.3-5-6-7.87-5.46-1.87.4-3.06,2.25-2.66,4.11.03.12.07.24.1.35.59,1.98,2.71,3.36,4.55,4.06,1.84.69,5.5.53,6.78.45.17,1.02.33,2.03.44,3.03.06.69.17,1.34.2,2.02.02.68.07,1.35.11,2.01.02,1.29.06,2.62.05,3.87,0,.87-.02,1.71-.03,2.54-.22-1-.67-2.93-.73-3.08-.86-2.13-2.24-4.01-4.03-5.45-.09-.24-.19-.47-.33-.69-.9-1.69-3-2.32-4.68-1.42-.11.06-.22.12-.32.19-2.37,1.72-2.25,6.99-1.44,9.47.06.14.74,1.68,1.19,2.63-.34-.52-.68-1.03-1.06-1.57-.73-1.05-1.48-2.09-2.29-3.2-.41-.53-.82-1.06-1.23-1.59-.41-.53-.9-1.07-1.36-1.6-1.06-1.22-2.21-2.4-3.39-3.58.94-.65,4.17-2.95,5.2-4.62,1.02-1.67,1.86-4.07,1.09-5.98-.63-1.8-2.62-2.75-4.42-2.11-.11.04-.23.09-.34.14-2.6,1.35-3.29,6.57-2.86,9.15.06.14.53,1.97.83,2.96-.71-.7-1.42-1.4-2.17-2.08-2.15-1.98-4.38-3.91-6.61-5.84l-2.03-1.78c.33-.22,4.26-2.89,5.4-4.76,1.02-1.67,1.84-4.07,1.09-5.99-.67-1.79-2.66-2.7-4.45-2.03-.24.08-.48.21-.7.35-2.6,1.35-3.28,6.57-2.86,9.14.07.19.78,2.8,1,3.45-1.48-1.31-2.95-2.63-4.35-3.99-1.91-1.83-3.67-3.79-5.31-5.86.17-.06,4.28-2.84,5.43-4.78,1.02-1.67,1.86-4.07,1.09-5.98-.64-1.8-2.62-2.73-4.42-2.1-.11.04-.23.09-.34.14-2.6,1.35-3.28,6.57-2.85,9.13.06.16.58,2.15.87,3.1l-.14.06c-1.6-2.11-3-4.35-4.19-6.7-.67-1.3-1.24-2.58-1.77-3.82.82-.43,4.54-2.47,5.78-4.08,1.25-1.61,2.29-3.83,1.75-5.82-.44-1.86-2.32-3.02-4.18-2.57-.12.02-.23.05-.34.1-2.73,1.05-3.98,6.17-3.85,8.77.05.13.25,1.58.44,2.61l-.66-1.71c-.8-2.07-1.39-4-1.9-5.72-.28-.98-.53-1.87-.74-2.71.57-.85,2.87-4.29,3.22-6.26.35-1.96.27-4.45-1.12-5.98-1.24-1.45-3.41-1.62-4.86-.4-.11.09-.19.18-.29.28-1.94,2.19-.74,7.32.63,9.56.08.21,2.24,3,2.33,2.96.19.82.4,1.69.65,2.62.48,1.73,1.03,3.69,1.78,5.78.27.77.56,1.54.85,2.31.57,1.46,1.2,2.9,1.89,4.31,1.15,2.42,2.51,4.73,4.08,6.9l.04.09c-.69-.52-2.66-1.87-2.82-1.95-2.3-1.23-7.48-2.25-9.59-.21-1.34,1.37-1.3,3.56.07,4.89.08.09.17.17.27.24,1.58,1.21,4.14,1.23,6.04.8,2.19-.5,5.94-3.37,6.24-3.6,1.65,2.17,3.43,4.23,5.35,6.16,1.12,1.14,2.27,2.24,3.44,3.34-.61-.43-1.16-.8-1.24-.84-2.3-1.23-7.47-2.24-9.59-.2-1.34,1.37-1.31,3.56.05,4.89.1.09.19.18.29.26,1.58,1.33,4.07,1.32,6.02.88,1.95-.44,5.22-2.83,6.06-3.52.46.42.91.84,1.36,1.25,2.18,1.99,4.38,3.96,6.46,5.96.75.71,1.44,1.43,2.15,2.14-.55-.37-1-.68-1.09-.77-2.3-1.23-7.47-2.24-9.59-.2-1.35,1.35-1.34,3.53.03,4.88.11.11.23.22.36.31,1.58,1.33,4.08,1.33,6.02.88,1.94-.45,4.93-2.62,5.92-3.36.69.75,1.39,1.52,2.06,2.27.43.53.88,1.02,1.27,1.58.39.56.81,1.08,1.21,1.62.73,1.06,1.49,2.15,2.17,3.19.48.73.93,1.43,1.38,2.13-.72-.71-2.16-2.07-2.3-2.17-2.1-1.57-7.05-3.34-9.43-1.65-1.51,1.17-1.79,3.34-.63,4.85.07.09.14.17.22.26,1.36,1.55,3.87,1.91,5.82,1.77,2.14-.16,6.18-2.32,6.68-2.58.73,1.17,1.45,2.32,2.11,3.41,2.27,3.77,4.02,7,5.21,9.27.16.28.3.56.42.81l1.82-.67c-.15-.33-.37-.66-.59-1.06-1.26-2.27-3.1-5.49-5.48-9.25-.75-1.2-1.57-2.45-2.43-3.74,1.07-1.01,2.09-2.07,3.05-3.18,1.98.97,6.23,1.37,6.79,1.41-.03,1.38-.07,2.72-.12,3.99-.18,4.41-.46,8.05-.76,10.62-.05.39-.09.75-.12,1.08l2.13-.77s0-.1.01-.15c.19-2.58.45-6.29.54-10.74.03-1.4.07-2.91.03-4.46.56-.09,5.08-.85,6.87-2.04,1.62-1.09,3.38-2.92,3.5-4.99.17-1.9-1.23-3.59-3.14-3.76-.11-.02-.24-.01-.36-.01-2.92.13-5.73,4.59-6.43,7.1-.03.16-.3,1.81-.45,2.86,0-.63.01-1.19-.01-1.88-.02-1.29-.09-2.57-.14-3.95-.05-.66-.1-1.33-.16-2.01-.06-.68-.16-1.38-.24-2.07-.22-1.62-.51-3.24-.85-4.87,1.12-.03,5.11-.15,6.88-.99,1.77-.84,3.84-2.38,4.25-4.4.48-1.85-.63-3.73-2.48-4.2-.12-.03-.23-.05-.36-.07-2.9-.32-6.37,3.64-7.42,6.04-.07.15-.64,1.94-.94,2.93-.21-.98-.42-1.94-.67-2.93-.7-2.83-1.5-5.68-2.3-8.52-.24-.88-.47-1.74-.7-2.62.39,0,5.14-.06,7.13-.99,1.76-.82,3.83-2.39,4.25-4.4.47-1.86-.65-3.74-2.51-4.22-.11-.03-.22-.06-.34-.07-2.91-.3-6.37,3.64-7.43,6.05-.08.19-.91,2.73-1.06,3.43-.51-1.92-1.01-3.83-1.42-5.74-.58-2.58-.99-5.21-1.23-7.85.19,0,5.15-.03,7.18-.99,1.76-.83,3.78-2.37,4.24-4.41.46-1.85-.68-3.73-2.53-4.18-.12-.04-.24-.06-.36-.07-2.9-.32-6.37,3.64-7.43,6.05-.07.16-.69,2.12-.97,3.07l-.16-.02c-.16-2.65-.09-5.3.22-7.94.15-1.45.38-2.83.62-4.18.93.09,5.15.45,7.05-.2,1.9-.65,4.01-1.94,4.66-3.9.66-1.79-.25-3.77-2.03-4.44-.12-.04-.24-.07-.36-.11-2.86-.63-6.72,2.94-8.04,5.19-.07.12-.64,1.43-1.09,2.42.12-.61.24-1.22.38-1.8.48-2.16,1.04-4.11,1.56-5.82.31-.99.6-1.86.87-2.71.96-.37,4.76-1.99,6.14-3.44s2.67-3.57,2.34-5.66c-.24-1.89-1.97-3.23-3.87-3Z"/>
      <path class="cls-15" d="m50.44,291.49c2.28.09,7.03-1.86,7.03-1.86,0,0-2.23-2.71-2.4-2.89-1.88-1.81-6.61-4.14-9.17-2.74-1.65.97-2.2,3.1-1.23,4.75.06.1.12.2.19.3,1.18,1.7,3.63,2.35,5.58,2.44Z"/>
      <path class="cls-14" d="m107.45,250.73c-.12.02-.24.05-.37.07-2.82.76-4.61,5.71-4.74,8.32,0,.23.26,3.75.26,3.75l.05-.02c-.28.77-.57,1.61-.9,2.54-.53,1.7-1.17,3.65-1.7,5.8-.6,2.32-1.05,4.67-1.37,7.04-.37,2.65-.5,5.33-.4,8l-1.2-3.11c-1.24-2.29-5-5.99-7.87-5.45-1.87.4-3.05,2.22-2.65,4.09.02.12.06.25.1.38.58,1.97,2.72,3.36,4.54,4.05,2.06.78,6.81.46,7.19.44.17,2.72.52,5.43,1.06,8.1.3,1.56.66,3.12,1.03,4.68l-.54-1.4c-1.24-2.29-4.99-5.99-7.86-5.46-1.87.4-3.06,2.25-2.66,4.11l.1.35c.58,1.97,2.71,3.36,4.53,4.05,1.82.69,5.91.51,6.98.45l.44,1.8c.73,2.86,1.46,5.71,2.1,8.53.22,1,.41,1.98.6,2.97l-.46-1.2c-1.24-2.3-5-6-7.87-5.46-1.87.4-3.06,2.25-2.66,4.11.03.12.07.24.1.35.59,1.98,2.71,3.36,4.55,4.06,1.84.69,5.5.53,6.78.45.17,1.02.33,2.03.44,3.03.06.69.17,1.34.2,2.02.02.68.07,1.35.11,2.01.02,1.29.06,2.62.05,3.87,0,.87-.02,1.71-.03,2.54-.22-1-.67-2.93-.73-3.08-.86-2.13-2.24-4.01-4.03-5.45-.09-.24-.19-.47-.33-.69-.9-1.69-3-2.32-4.68-1.42-.11.06-.22.12-.32.19-2.37,1.72-2.25,6.99-1.44,9.47.06.14.74,1.68,1.19,2.63-.34-.52-.68-1.03-1.06-1.57-.73-1.05-1.48-2.09-2.29-3.2-.41-.53-.82-1.06-1.23-1.59-.41-.53-.9-1.07-1.36-1.6-1.06-1.22-2.21-2.4-3.39-3.58.94-.65,4.17-2.95,5.2-4.62,1.02-1.67,1.86-4.07,1.09-5.98-.63-1.8-2.62-2.75-4.42-2.11-.11.04-.23.09-.34.14-2.6,1.35-3.29,6.57-2.86,9.15.06.14.53,1.97.83,2.96-.71-.7-1.42-1.4-2.17-2.08-2.15-1.98-4.38-3.91-6.61-5.84l-2.03-1.78c.33-.22,4.26-2.89,5.4-4.76,1.02-1.67,1.84-4.07,1.09-5.99-.67-1.79-2.66-2.7-4.45-2.03-.24.08-.48.21-.7.35-2.6,1.35-3.28,6.57-2.86,9.14.07.19.78,2.8,1,3.45-1.48-1.31-2.95-2.63-4.35-3.99-1.91-1.83-3.67-3.79-5.31-5.86.17-.06,4.28-2.84,5.43-4.78,1.02-1.67,1.86-4.07,1.09-5.98-.64-1.8-2.62-2.73-4.42-2.1-.11.04-.23.09-.34.14-2.6,1.35-3.28,6.57-2.85,9.13.06.16.58,2.15.87,3.1l-.14.06c-1.6-2.11-3-4.35-4.19-6.7-.67-1.3-1.24-2.58-1.77-3.82.82-.43,4.54-2.47,5.78-4.08,1.25-1.61,2.29-3.83,1.75-5.82-.44-1.86-2.32-3.02-4.18-2.57-.12.02-.23.05-.34.1-2.73,1.05-3.98,6.17-3.85,8.77.05.13.25,1.58.44,2.61l-.66-1.71c-.8-2.07-1.39-4-1.9-5.72-.28-.98-.53-1.87-.74-2.71.57-.85,2.87-4.29,3.22-6.26.35-1.96.27-4.45-1.12-5.98-1.24-1.45-3.41-1.62-4.86-.4-.11.09-.19.18-.29.28-1.94,2.19-.74,7.32.63,9.56.08.21,2.24,3,2.33,2.96.19.82.4,1.69.65,2.62.48,1.73,1.03,3.69,1.78,5.78.27.77.56,1.54.85,2.31.57,1.46,1.2,2.9,1.89,4.31,1.15,2.42,2.51,4.73,4.08,6.9l.04.09c-.69-.52-2.66-1.87-2.82-1.95-2.3-1.23-7.48-2.25-9.59-.21-1.34,1.37-1.3,3.56.07,4.89.08.09.17.17.27.24,1.58,1.21,4.14,1.23,6.04.8,2.19-.5,5.94-3.37,6.24-3.6,1.65,2.17,3.43,4.23,5.35,6.16,1.12,1.14,2.27,2.24,3.44,3.34-.61-.43-1.16-.8-1.24-.84-2.3-1.23-7.47-2.24-9.59-.2-1.34,1.37-1.31,3.56.05,4.89.1.09.19.18.29.26,1.58,1.33,4.07,1.32,6.02.88,1.95-.44,5.22-2.83,6.06-3.52.46.42.91.84,1.36,1.25,2.18,1.99,4.38,3.96,6.46,5.96.75.71,1.44,1.43,2.15,2.14-.55-.37-1-.68-1.09-.77-2.3-1.23-7.47-2.24-9.59-.2-1.35,1.35-1.34,3.53.03,4.88.11.11.23.22.36.31,1.58,1.33,4.08,1.33,6.02.88,1.94-.45,4.93-2.62,5.92-3.36.69.75,1.39,1.52,2.06,2.27.43.53.88,1.02,1.27,1.58.39.56.81,1.08,1.21,1.62.73,1.06,1.49,2.15,2.17,3.19.48.73.93,1.43,1.38,2.13-.72-.71-2.16-2.07-2.3-2.17-2.1-1.57-7.05-3.34-9.43-1.65-1.51,1.17-1.79,3.34-.63,4.85.07.09.14.17.22.26,1.36,1.55,3.87,1.91,5.82,1.77,2.14-.16,6.18-2.32,6.68-2.58.73,1.17,1.45,2.32,2.11,3.41,2.27,3.77,4.02,7,5.21,9.27.16.28.3.56.42.81l1.82-.67c-.15-.33-.37-.66-.59-1.06-1.26-2.27-3.1-5.49-5.48-9.25-.75-1.2-1.57-2.45-2.43-3.74,1.07-1.01,2.09-2.07,3.05-3.18,1.98.97,6.23,1.37,6.79,1.41-.03,1.38-.07,2.72-.12,3.99-.18,4.41-.46,8.05-.76,10.62-.05.39-.09.75-.12,1.08l2.13-.77s0-.1.01-.15c.19-2.58.45-6.29.54-10.74.03-1.4.07-2.91.03-4.46.56-.09,5.08-.85,6.87-2.04,1.62-1.09,3.38-2.92,3.5-4.99.17-1.9-1.23-3.59-3.14-3.76-.11-.02-.24-.01-.36-.01-2.92.13-5.73,4.59-6.43,7.1-.03.16-.3,1.81-.45,2.86,0-.63.01-1.19-.01-1.88-.02-1.29-.09-2.57-.14-3.95-.05-.66-.1-1.33-.16-2.01-.06-.68-.16-1.38-.24-2.07-.22-1.62-.51-3.24-.85-4.87,1.12-.03,5.11-.15,6.88-.99,1.77-.84,3.84-2.38,4.25-4.4.48-1.85-.63-3.73-2.48-4.2-.12-.03-.23-.05-.36-.07-2.9-.32-6.37,3.64-7.42,6.04-.07.15-.64,1.94-.94,2.93-.21-.98-.42-1.94-.67-2.93-.7-2.83-1.5-5.68-2.3-8.52-.24-.88-.47-1.74-.7-2.62.39,0,5.14-.06,7.13-.99,1.76-.82,3.83-2.39,4.25-4.4.47-1.86-.65-3.74-2.51-4.22-.11-.03-.22-.06-.34-.07-2.91-.3-6.37,3.64-7.43,6.05-.08.19-.91,2.73-1.06,3.43-.51-1.92-1.01-3.83-1.42-5.74-.58-2.58-.99-5.21-1.23-7.85.19,0,5.15-.03,7.18-.99,1.76-.83,3.78-2.37,4.24-4.41.46-1.85-.68-3.73-2.53-4.18-.12-.04-.24-.06-.36-.07-2.9-.32-6.37,3.64-7.43,6.05-.07.16-.69,2.12-.97,3.07l-.16-.02c-.16-2.65-.09-5.3.22-7.94.15-1.45.38-2.83.62-4.18.93.09,5.15.45,7.05-.2,1.9-.65,4.01-1.94,4.66-3.9.66-1.79-.25-3.77-2.03-4.44-.12-.04-.24-.07-.36-.11-2.86-.63-6.72,2.94-8.04,5.19-.07.12-.64,1.43-1.09,2.42.12-.61.24-1.22.38-1.8.48-2.16,1.04-4.11,1.56-5.82.31-.99.6-1.86.87-2.71.96-.37,4.76-1.99,6.14-3.44s2.67-3.57,2.34-5.66c-.24-1.89-1.97-3.23-3.87-3Z"/>
      <path class="cls-13" d="m99.26,273.87s-.36-3.51-.4-3.73c-.6-2.54-3.23-7.08-6.16-7.34-1.9-.11-3.53,1.35-3.64,3.25,0,.13,0,.26,0,.39.04,2.05,1.73,3.96,3.31,5.1,1.85,1.35,6.88,2.34,6.89,2.34Z"/>
      <path class="cls-13" d="m50.44,291.49c2.28.09,7.03-1.86,7.03-1.86,0,0-2.23-2.71-2.4-2.89-1.88-1.81-6.61-4.14-9.17-2.74-1.65.97-2.2,3.1-1.23,4.75.06.1.12.2.19.3,1.18,1.7,3.63,2.35,5.58,2.44Z"/>
    </g>
  </g>
  <g id="Shape">
    <g>
      <ellipse class="cls-15" cx="219.24" cy="347.92" rx="172.12" ry="22.97"/>
      <ellipse class="cls-4" cx="219.24" cy="347.92" rx="172.12" ry="22.97"/>
    </g>
  </g>
  <g id="Character_2" data-name="Character 2">
    <g>
      <path class="cls-15" d="m417.74,130.78s-6.12,28.16-14.15,41.49l-9.17-3.23-4.56,3.82-19.39,16.29s-29.34-9.78-34.79-19.33c-5.45-9.55,2.11-22.14,2.11-22.14l19.15-46.1.17-.1,8.23-4.39s1.49-.19,3.75-.35c.78-.06,1.65-.11,2.58-.14,4.59-.19,10.65-.07,14.6,1.42,7.08,2.67,12.92,1.68,12.92,1.68,0,0,8.21,11,13.3,18.65,5.1,7.67,5.26,12.42,5.26,12.42Z"/>
      <g>
        <path class="cls-2" d="m310.46,219.26s-6.6,17.45-7.64,27.84c-1.04,10.39,11.78,28.06,11.78,28.06,0,0-6.2,11.08-4.14,14.55,2.06,3.46,8.05-5.2,10.95-16.63s-2.3-27.02-2.3-27.02c0,0,8.48-12.01,8.91-17.26.44-5.25-17.56-9.54-17.56-9.54Z"/>
        <path class="cls-9" d="m310.59,219.26s-6.71,17.45-7.76,27.84c-1.06,10.39,11.97,28.06,11.97,28.06,0,0-6.3,11.08-4.21,14.55,2.1,3.46,8.19-5.2,11.13-16.63,2.94-11.43-2.34-27.02-2.34-27.02,0,0,8.62-12.01,9.06-17.26.44-5.25-17.85-9.54-17.85-9.54Z"/>
        <path class="cls-17" d="m312.79,277.64s-1.7-3.12-.71-3.97c.99-.85,4.67,1.27,5.24,2.83.57,1.56,3.39-.95,3.39-.95l1.63-5.86s1.64,3.83,1.78,5.53c.14,1.7-3,4.92-3.4,8.92-.47,4.71-6.23,9.35-9.63,8.92-3.4-.42-1.42-10.62,1.7-15.44Z"/>
        <path class="cls-11" d="m323.13,274.5c-1.94,2.77-3.35,5.58-4.73,8.66-.85,1.91-1.17,4.03-2.79,5.36-1.51,1.25-3.23,1.98-5.14,2.39"/>
      </g>
      <path class="cls-16" d="m389.86,172.86l-19.39,16.29s-29.34-9.78-34.79-19.33c-5.45-9.55,2.11-22.14,2.11-22.14l19.15-46.1.17-.1c4-1.13,8-3.38,11.97-4.74.91-.31,1.8-.58,2.7-.78-.04.21-.08.42-.12.63-3.48,19.08.49,39.43,10.9,55.8,2.09,3.28,2.89,7.23,4.5,10.76,1,2.21,2.02,4.45,2.49,6.82.19.94.29,1.91.31,2.87Z"/>
      <path class="cls-2" d="m388.64,105.36s.56,3.92,6.33,4.66c5.77.74,8.97-3.62,8.97-3.62,0,0-.97-4.82.06-10.26s2.66-7.07,2.66-7.07c0,0,6.7.08,7.11-5.16.4-5.24-6.17-8.1-8.33-5.88-2.17,2.22-5.02-5.87-5.02-5.87l-7.67-4.42-5.63-5.05-4.37,4.23s-1.44,5-1.79,7.4c-.35,2.4-1.96,6.63-1.95,8.72.02,2.08.6,13.59,1.9,17.21,1.3,3.62,4.69,4.64,6.21,4.35,1.52-.29,1.52.75,1.52.75Z"/>
      <g>
        <g>
          <path class="cls-2" d="m328.74,332.14c-.7-3.59-.11-7.76,1.53-12.14,2.85-7.6,5.4-57.29,12.63-62.99,4.66-3.68,16.18,1.27,16.18,1.27,0,0,.63,6.65,0,17.41-.63,10.76-20.24,46.21-20.41,49.38-.03.58.4,1.52,1.11,2.72l-11.03,4.35Z"/>
          <path class="cls-9" d="m328.74,332.14c-.7-3.59-.11-7.76,1.53-12.14,2.85-7.6,5.4-57.29,12.63-62.99,4.66-3.68,16.18,1.27,16.18,1.27,0,0,.63,6.65,0,17.41-.63,10.76-20.24,46.21-20.41,49.38-.03.58.4,1.52,1.11,2.72l-11.03,4.35Z"/>
        </g>
        <path class="cls-17" d="m329.11,323.78s-2.47,7.5-2.08,11.78c.39,4.28,3.5,1.94,9.6,9.03,6.1,7.09,11.65,7.79,13.62,6.41s.81-4.96-5.39-15.44c-6.19-10.49-3.91-5.89-3.91-5.89,0,0,1.26-4.37-1.12-4.99-3.46-.9-5.51,4.13-7.68,4.13s-3.04-5.03-3.04-5.03Z"/>
        <path class="cls-11" d="m327.73,333.49c.5.77,1.2,1.45,1.95,1.99,1.5,1.08,3.24,1.76,4.79,2.77,1.99,1.31,3.57,3.12,5.24,4.81,1.16,1.17,2.38,2.3,3.64,3.36,1,.84,2.05,1.66,3.28,2.1,1.23.43,2.69.42,3.76-.33"/>
      </g>
      <path class="cls-9" d="m388.67,61.45c-2.74,2.17-5.7,4.64-6.8,8.09-1.09,3.43-.79,7.29-2.22,10.64-.99,2.32-.57,5.6-.43,8.05.22,3.84.77,7.68,1.55,11.44.58,2.81,1.76,4.57,4.73,4.92,2.91.34,6.12-1.17,8.64-2.48,4.06-2.1,8.89-8.81,11.3-12.81,3.2-.76,9.31-.37,8.2-6.5-1.11-6.12-5.73-3.14-7.02-1.38"/>
      <path class="cls-9" d="m390.54,79.21c1.57-1.67,3.2-1.15,5.08-.02"/>
      <path class="cls-9" d="m386.5,80.28c.41,2.36-.16,4.9-1.62,6.81-.4.53-.89,1.06-.95,1.72-.07.74.42,1.41.96,1.93"/>
      <path class="cls-9" d="m386.36,94.99c2.42.21,3.79-.36,5.07-2.22"/>
      <path class="cls-17" d="m393.01,83.64c-.07.85-.48,1.51-.9,1.48-.42-.04-.71-.76-.63-1.61.07-.85.48-1.51.9-1.48.42.04.71.76.63,1.61Z"/>
      <path class="cls-17" d="m383.84,82.43c-.07.85-.48,1.51-.9,1.48s-.71-.76-.63-1.61c.07-.85.48-1.51.9-1.48.42.04.71.76.63,1.61Z"/>
      <path class="cls-9" d="m381.33,77.9s1.49-1.28,2.89.25"/>
      <path class="cls-9" d="m405.44,89.31c-1.02,3.3-1.38,6.13-1.77,9.57-.28,2.51-.39,5.08.27,7.52-1.54,2.5-5.48,3.93-8.4,3.68-1.65-.14-3.31-.58-4.65-1.56-1.33-.98-2.3-2.55-2.25-4.21"/>
      <path class="cls-17" d="m335.27,166.97s17.56,17.94,36.64,20.99c0,0,5.34,9.54,2.67,18.7-2.67,9.16-12.98,48.85-12.98,48.85l-19.46-2.29v-48.47s-6.47,16.46-12.43,24.5l-19.24-10s6.49-37.4,24.81-52.29Z"/>
      <polyline class="cls-11" points="335.68 190.91 341.52 197.59 342.14 204.75"/>
      <path class="cls-17" d="m338.91,242.72s-1.06,6.14,1.27,15.67c0,0,13.55,3.6,21.81,1.06,0,0,4.02-8.47,4.66-11.86,0,0-13.33-7.83-27.73-4.87Z"/>
      <path class="cls-17" d="m307.14,223.24s9.1,7.2,20.54,9.32c0,0,5.82-4.02,7.99-6.78,0,0-12.44-12.49-27.05-12.49l-1.48,9.95Z"/>
      <path class="cls-9" d="m390.92,141.27s2.93-11.16,12.68-13.81"/>
      <path class="cls-17" d="m406.91,80.9c-.91.72-.65,2.27-1.34,3.2-.63.84-1.54,1.4-2.59,1.47-.09,0-.2,0-.27-.05-.08-.06-.11-.17-.13-.26-.3-1.48-.06-3.01-.05-4.52,0-2.5-1.02-3.67-2.71-5.27-1.32-1.25-1.27-3.45-2.53-4.77-.89-.93-2.27-1.22-3.56-1.27-1.29-.05-2.6.1-3.87-.16-2.38-.5-4.18-2.42-4.71-5-1.99,1.6-3.72,6.96-3.72,6.96l-1.26-1.09c-3.04-2.84-3.62-7.88-1.52-11.48,2.14-3.67,6.69-5.66,10.9-5.07,2.8.39,5.4,1.78,8.22,2.03,3.43.31,7-1.1,10.27-.01,3.26,1.08,5.29,4.38,6.26,7.68.96,3.3,1.14,6.79,2.17,10.07.34,1.09.78,2.15.93,3.28.33,2.61-1.11,5.36-3.45,6.58,0,0-.95-7.12-7.04-2.32Z"/>
      <path class="cls-10" d="m381.47,67.1c-1.29-1.91-1.7-4.45-.82-6.58.88-2.13,3.12-3.69,5.42-3.54,2.32.15,4.23,1.86,5.69,3.67,1.46,1.8,2.73,3.84,4.67,5.13,2.12,1.41,4.77,1.76,7.03,2.93,3.54,1.84,5.85,5.83,5.68,9.82"/>
      <path class="cls-10" d="m395.71,59.23c.98,1.81,3.01,2.78,5,3.34,1.98.56,4.07.84,5.89,1.8,2.81,1.48,4.66,4.62,4.6,7.8"/>
      <g>
        <path class="cls-1" d="m186,84.86h195.27c4.08,0,7.4,3.32,7.4,7.4v106.03c0,4.08-3.32,7.4-7.4,7.4h-195.27c-4.08,0-7.4-3.32-7.4-7.4v-106.03c0-4.08,3.32-7.4,7.4-7.4Z" transform="translate(40.73 351.55) rotate(-67.46)"/>
        <path class="cls-15" d="m349.4,83.11l-3.57,8.61c-1.08,2.59-4.06,3.83-6.65,2.75l-58.78-24.4c-2.15-.89-3.36-3.08-3.11-5.28.05-.46.17-.93.35-1.37l3.57-8.61c1.08-2.6,4.06-3.83,6.66-2.75l58.78,24.4c2.59,1.08,3.83,4.06,2.75,6.66Z"/>
        <g>
          <path class="cls-17" d="m307.49,66.27l-2.98,7.18-1.33-.55,1.28-3.08-3.71-1.54-1.28,3.08-1.33-.55,2.98-7.18,1.33.55-1.23,2.96,3.71,1.54,1.23-2.96,1.33.55Z"/>
          <path class="cls-17" d="m312.41,73.99l-4.29-1.78c-.18.86.28,1.65,1.23,2.05.61.26,1.18.26,1.73.02l.36,1.07c-.73.38-1.63.37-2.57-.02-1.83-.76-2.53-2.43-1.86-4.06.68-1.63,2.36-2.3,3.99-1.62,1.6.66,2.3,2.27,1.59,3.98-.04.1-.12.25-.18.37Zm-3.95-2.64l3.11,1.29c.22-.83-.15-1.63-.99-1.97-.83-.34-1.66-.06-2.11.69Z"/>
          <path class="cls-17" d="m315.85,69.23l1.28.53-3.16,7.61-1.28-.53,3.16-7.61Z"/>
          <path class="cls-17" d="m318.81,70.46l1.28.53-3.16,7.61-1.28-.53,3.16-7.61Z"/>
          <path class="cls-17" d="m319.3,76.37c.68-1.64,2.39-2.29,4.07-1.59,1.7.71,2.44,2.37,1.76,4.01-.68,1.64-2.39,2.3-4.09,1.6-1.68-.7-2.43-2.38-1.75-4.02Zm4.54,1.88c.43-1.05.01-2-.92-2.39-.92-.38-1.9,0-2.33,1.04-.43,1.05-.01,2,.91,2.38.93.39,1.91,0,2.34-1.04Z"/>
          <path class="cls-17" d="m325.3,81.21c.18-.44.68-.64,1.16-.44.47.2.67.68.48,1.13-.18.44-.67.66-1.14.46-.48-.2-.68-.7-.5-1.14Zm2.75-6.42l1.52.63-2.25,4.69-1.01-.42,1.75-4.9Z"/>
        </g>
        <g>
          <rect class="cls-17" x="255.74" y="113.63" width="80.9" height="4.91" transform="translate(67.13 -104.67) rotate(22.54)"/>
          <rect class="cls-17" x="250.9" y="125.29" width="80.9" height="4.91" transform="translate(71.23 -101.93) rotate(22.54)"/>
          <rect class="cls-17" x="246.06" y="136.95" width="80.9" height="4.91" transform="translate(75.33 -99.18) rotate(22.54)"/>
          <rect class="cls-17" x="241.22" y="148.6" width="80.9" height="4.91" transform="translate(79.43 -96.44) rotate(22.54)"/>
          <rect class="cls-17" x="236.39" y="160.26" width="80.9" height="4.91" transform="translate(83.52 -93.69) rotate(22.54)"/>
          <rect class="cls-17" x="231.55" y="171.92" width="80.9" height="4.91" transform="translate(87.62 -90.95) rotate(22.54)"/>
        </g>
        <path class="cls-7" d="m322.41,209.44l-20.41,49.17c-1.57,3.77-5.89,5.57-9.67,4l-70.14-29.11c4.36-5.19,10.3-9.05,16.93-10.52,10.27-2.28,21.98.5,30.77-5.28,7.09-4.66,10.56-13.99,18.35-17.35,3.92-1.69,8.4-1.57,12.58-.75,7.53,1.49,15.22,5.19,21.59,9.84Z"/>
        <path class="cls-7" d="m275.84,47.73c-2.71,1.99-4.48,5-5.95,8.01-3.48,7.11-5.78,14.74-9.31,21.82-3.53,7.07-8.58,13.8-15.75,17.13-1.98.92-4.15,1.51-6.35,1.76l26.77-64.51c1.57-3.77,5.9-5.56,9.67-4l17.1,7.1c-1.39,6.19-10.85,8.78-16.19,12.69Z"/>
        <path class="cls-16" d="m349.4,83.11l-3.57,8.61c-1.08,2.59-4.06,3.83-6.65,2.75l-58.78-24.4c-2.15-.89-3.36-3.08-3.11-5.28,3.06.04,6.85,2.61,9.38,3.64,4.09,1.68,8.22,3.26,12.39,4.74,13.1,4.65,27.47,8.32,40.73,4.17,1.55-.48,3.09-1.09,4.52-1.86l2.34.97c2.59,1.08,3.83,4.06,2.75,6.66Z"/>
        <path class="cls-8" d="m349.4,83.11l-3.57,8.61c-1.08,2.59-4.06,3.83-6.65,2.75l-58.78-24.4c-2.15-.89-3.36-3.08-3.11-5.28.05-.46.17-.93.35-1.37l3.57-8.61c1.08-2.6,4.06-3.83,6.66-2.75l58.78,24.4c2.59,1.08,3.83,4.06,2.75,6.66Z"/>
      </g>
      <g>
        <path class="cls-2" d="m395.75,170.61s-14.64,10.88-19.46,14.37c0,0-23.57-15.07-31.92-22.9s-11.99-10.56-12.52-19.44c0,0-12.4,1.33-13.7-1.35,0,0,2.03-1.33,5.31-1.51,0,0-5.77-1.66-5.79-3.77l11.57-.64s-13.03-1.95-12.88-3.15c.15-1.2,16.02-3.06,20.28,0,0,0,5.12,9.03,7.22,15.13,0,0,15.9,14.27,32.43,17.54l6-6.4,13.47,12.12Z"/>
        <path class="cls-9" d="m382.28,158.5l-6,6.4s-21.05-5.5-32.43-17.54c0,0-4.78-12.04-7.22-15.13-2.44-3.1-21.26-1.38-20.28,0,.98,1.38,11.58,3.59,11.58,3.59"/>
        <path class="cls-9" d="m395.75,170.03s-9.92,9.62-19.46,14.95c0,0-24.37-13.67-36.42-27.57l-1.09-.75c-4.59-3.14-7.22-8.45-6.93-14.01h0c-4.28,1.33-9.04,1.06-13.14-.75-.27-.12-.58-.31-.56-.6.01-.21.19-.36.37-.48,1.35-.88,3.33-.97,4.94-1.04,3.02-.13,5.79-.98,8.76-.45"/>
        <path class="cls-9" d="m333.17,135.91c-1.34-.03-2.67-.05-4.01-.08-3.6-.07-7.19-.14-10.79-.2-.3,0-.7.08-.71.38,0,.14.08.26.17.36.84,1,1.99,1.68,3.13,2.32.64.37,1.3.73,2,.96"/>
      </g>
      <path class="cls-11" d="m366.64,187.95s-2.65,15.94,7.94,18.71"/>
      <path class="cls-11" d="m343.9,242.41s9.83-.65,17.53,3.22"/>
      <path class="cls-11" d="m331.65,222.34s-2.28-1.75-5.57-3.68"/>
      <path class="cls-9" d="m369.26,96.58c3.15-.26,7.69-.26,10.93.53"/>
      <path class="cls-9" d="m403.59,104.65s11.31,14.82,14.14,26.14c0,0-4.71,27.03-14.14,41.49,0,0-11.71-.31-22.99-16.66,0,0,6.07-10.06,15.78-20.75"/>
      <line class="cls-9" x1="371.91" y1="187.96" x2="375.33" y2="184.98"/>
      <path class="cls-17" d="m388.9,104.84s2.68,3.38,6.85,2.11,7.85-14.77,7.85-14.77c0,0-7.01,10.15-14.69,12.66Z"/>
    </g>
  </g>
  <g id="Phone">
    <g>
      <path class="cls-17" d="m289.26,82.59v248.66c0,5.59-4.53,10.12-10.12,10.12h-123.95c-2.3,0-4.42-.77-6.13-2.06-2.43-1.84-4-4.77-4-8.06V82.59c0-5.59,4.53-10.12,10.12-10.12h123.95c5.59,0,10.12,4.53,10.12,10.12Z"/>
      <path class="cls-17" d="m293.41,82.59v248.66c0,5.59-4.53,10.12-10.12,10.12h-123.95c-2.3,0-4.42-.77-6.13-2.06-2.43-1.84-4-4.77-4-8.06V82.59c0-5.59,4.53-10.12,10.12-10.12h123.95c5.59,0,10.12,4.53,10.12,10.12Z"/>
      <line class="cls-12" x1="201.08" y1="83.57" x2="234.58" y2="83.57"/>
      <path class="cls-3" d="m289.26,82.59v248.66c0,5.59-4.53,10.12-10.12,10.12h-123.95c-2.3,0-4.42-.77-6.13-2.06l108.2-266.84h21.88c5.59,0,10.12,4.53,10.12,10.12Z"/>
      <path class="cls-8" d="m289.26,82.59v248.66c0,5.59-4.53,10.12-10.12,10.12h-123.95c-2.3,0-4.42-.77-6.13-2.06-2.43-1.84-4-4.77-4-8.06V82.59c0-5.59,4.53-10.12,10.12-10.12h123.95c5.59,0,10.12,4.53,10.12,10.12Z"/>
      <rect class="cls-1" x="153.38" y="89.98" width="127.77" height="228.65" rx="12.81" ry="12.81"/>
      <path class="cls-17" d="m222.83,330.7c0,3.34-2.71,6.05-6.05,6.05s-6.05-2.71-6.05-6.05,2.71-6.05,6.05-6.05,6.05,2.71,6.05,6.05Z"/>
      <polygon class="cls-17" points="258.57 336.17 258.57 325.22 269.51 330.7 258.57 336.17"/>
      <rect class="cls-17" x="165.67" y="325.83" width="9.93" height="9.93"/>
      <path class="cls-17" d="m253.65,150.36l-1.57-3.44-4.16.73-.29,3.79c-1.27.48-2.48,1.12-3.59,1.9l-3.31-1.95-2.94,2.96,1.98,3.32c-1.3,1.92-2.18,4.08-2.6,6.35l-3.79.92v4.19l3.82.97c.25,1.3.65,2.56,1.2,3.77l-2.59,2.99,2.39,3.43,3.68-1.41c.95.92,1.99,1.72,3.12,2.4l-.41,3.94,3.93,1.44,2.22-3.27c.91.16,1.84.24,2.76.24.4,0,.79,0,1.18-.05l1.92,3.43,4.05-1.09-.06-3.89c1.21-.57,2.35-1.29,3.4-2.14l3.49,1.68,2.69-3.2-2.23-3.11c.68-1.18,1.21-2.44,1.58-3.75l3.76-.63.36-4.17-3.55-1.26c-.14-1.37-.45-2.72-.92-4.01l2.68-2.63-2.1-3.63-3.61.99c-.89-1.04-1.91-1.97-3.04-2.76l.68-3.68-3.79-1.77-2.38,2.89c-1.3-.33-2.64-.5-3.98-.51Zm-.07,6.2c5.78,0,10.46,4.68,10.46,10.46s-4.68,10.46-10.46,10.46-10.46-4.68-10.46-10.46,4.68-10.46,10.46-10.46h0Z"/>
      <path class="cls-7" d="m255.45,148.11l-1.57-3.44-4.16.73-.29,3.79c-1.27.48-2.48,1.12-3.59,1.9l-3.31-1.95-2.94,2.97,1.98,3.32c-1.3,1.91-2.18,4.08-2.6,6.35l-3.79.92v4.19l3.82.97c.25,1.3.65,2.56,1.2,3.77l-2.59,2.99,2.39,3.43,3.68-1.41c.95.92,1.99,1.72,3.12,2.4l-.41,3.94,3.93,1.44,2.22-3.27c.91.16,1.84.24,2.76.24.4,0,.79,0,1.18-.05l1.92,3.43,4.05-1.09-.06-3.89c1.21-.57,2.35-1.29,3.4-2.14l3.49,1.68,2.69-3.2-2.23-3.11c.68-1.18,1.21-2.44,1.58-3.75l3.76-.63.36-4.17-3.55-1.26c-.14-1.37-.45-2.72-.92-4.01l2.68-2.63-2.1-3.63-3.61.99c-.89-1.04-1.91-1.97-3.04-2.76l.68-3.68-3.79-1.77-2.38,2.89c-1.3-.33-2.64-.5-3.98-.51Zm-.07,6.2c5.78,0,10.46,4.68,10.46,10.46s-4.68,10.46-10.46,10.46-10.46-4.68-10.46-10.46,4.68-10.46,10.46-10.46h0Z"/>
      <path class="cls-17" d="m193.12,114.75l-2.5-5.51-6.66,1.16-.47,6.07c-2.03.77-3.96,1.79-5.75,3.04l-5.29-3.12-4.7,4.74,3.17,5.32c-2.07,3.06-3.49,6.53-4.16,10.17l-6.07,1.47v6.7l6.12,1.55c.39,2.08,1.04,4.1,1.92,6.03l-4.14,4.79,3.83,5.5,5.89-2.25c1.51,1.47,3.19,2.76,5,3.85l-.65,6.31,6.29,2.3,3.55-5.23c1.46.25,2.94.38,4.42.38.63,0,1.27,0,1.89-.07l3.06,5.5,6.48-1.74-.09-6.22c1.94-.92,3.77-2.07,5.44-3.42l5.58,2.68,4.3-5.13-3.57-4.98c1.09-1.89,1.94-3.9,2.53-6l6.01-1,.57-6.68-5.67-2.02c-.22-2.19-.72-4.35-1.47-6.42l4.29-4.21-3.36-5.81-5.78,1.59c-1.43-1.67-3.06-3.16-4.86-4.42l1.09-5.89-6.07-2.83-3.82,4.63c-2.08-.53-4.22-.8-6.37-.81Zm-.12,15.48c6.17,0,11.18,5.01,11.18,11.18s-5.01,11.18-11.18,11.18-11.18-5.01-11.18-11.18,5.01-11.18,11.18-11.18h0Z"/>
      <path class="cls-17" d="m243.8,256.76l-1.87-4.12-4.98.87-.35,4.54c-1.52.58-2.96,1.34-4.3,2.27l-3.96-2.34-3.51,3.55,2.37,3.98c-1.55,2.29-2.61,4.88-3.11,7.6l-4.54,1.1v5.01l4.57,1.16c.29,1.55.77,3.07,1.43,4.51l-3.1,3.58,2.86,4.11,4.41-1.69c1.13,1.1,2.38,2.06,3.74,2.88l-.48,4.72,4.7,1.72,2.66-3.91c1.09.19,2.2.29,3.31.29.47,0,.95,0,1.41-.06l2.29,4.11,4.85-1.3-.07-4.65c1.45-.69,2.82-1.54,4.07-2.56l4.18,2.01,3.22-3.83-2.67-3.72c.82-1.41,1.45-2.92,1.9-4.48l4.5-.75.43-4.99-4.24-1.51c-.17-1.64-.54-3.25-1.1-4.8l3.21-3.15-2.51-4.34-4.32,1.19c-1.07-1.25-2.29-2.36-3.64-3.31l.82-4.41-4.54-2.12-2.85,3.46c-1.56-.39-3.15-.6-4.76-.61Zm-.09,11.57c4.62,0,8.36,3.74,8.36,8.36s-3.74,8.36-8.36,8.36-8.36-3.74-8.36-8.36,3.74-8.36,8.36-8.36h0Z"/>
      <path class="cls-7" d="m245.56,253.77l-1.87-4.12-4.98.87-.35,4.54c-1.52.58-2.96,1.34-4.3,2.27l-3.96-2.34-3.51,3.55,2.37,3.98c-1.55,2.29-2.61,4.88-3.11,7.6l-4.54,1.1v5.01l4.57,1.16c.29,1.55.77,3.07,1.43,4.51l-3.1,3.58,2.86,4.11,4.41-1.69c1.13,1.1,2.38,2.06,3.74,2.88l-.48,4.72,4.7,1.72,2.66-3.91c1.09.19,2.2.29,3.31.29.47,0,.95,0,1.41-.06l2.29,4.11,4.85-1.3-.07-4.65c1.45-.69,2.82-1.54,4.07-2.56l4.18,2.01,3.22-3.83-2.67-3.72c.82-1.41,1.45-2.92,1.9-4.48l4.5-.75.43-4.99-4.24-1.51c-.17-1.64-.54-3.25-1.1-4.8l3.21-3.15-2.51-4.34-4.32,1.19c-1.07-1.25-2.29-2.36-3.64-3.31l.82-4.41-4.54-2.12-2.85,3.46c-1.56-.39-3.15-.6-4.76-.61Zm-.09,11.57c4.62,0,8.36,3.74,8.36,8.36s-3.74,8.36-8.36,8.36-8.36-3.74-8.36-8.36,3.74-8.36,8.36-8.36h0Z"/>
      <path class="cls-17" d="m279.21,221.38v-6.26c-5.69-.98-9.5-6.39-8.52-12.07.75-4.36,4.16-8.83,8.52-9.58v-8.68l-3.85.68-.29,3.78c-1.27.49-2.48,1.13-3.59,1.91l-3.31-1.96-2.96,2.96,1.96,3.33c-1.3,1.91-2.18,4.08-2.6,6.35l-3.79.92v4.19l3.82.92c.25,1.3.65,2.57,1.2,3.78l-2.6,2.99,2.4,3.43,3.68-1.41c.94.92,1.99,1.73,3.12,2.4l-.41,3.95,3.93,1.43,2.22-3.26c.38.14.72.17,1.06.21Z"/>
      <path class="cls-17" d="m190.31,192.87l-3.74-4.54-5.96,2.78,1.07,5.78c-1.77,1.24-3.37,2.7-4.77,4.34l-5.67-1.56-3.3,5.7,4.21,4.14c-.74,2.03-1.23,4.15-1.45,6.3l-5.57,1.98.56,6.55,5.9.98c.58,2.06,1.41,4.04,2.49,5.88l-3.5,4.89,4.22,5.03,5.48-2.63c1.64,1.33,3.43,2.45,5.34,3.35l-.09,6.1,6.36,1.71,3.01-5.39c.61.07,1.23.07,1.85.07,1.45,0,2.91-.13,4.34-.38l3.48,5.13,6.17-2.26-.64-6.19c1.77-1.07,3.42-2.33,4.9-3.77l5.78,2.21,3.76-5.39-4.06-4.7c.86-1.89,1.49-3.87,1.88-5.91l6-1.52v-6.58l-5.96-1.45c-.65-3.57-2.04-6.97-4.08-9.98l3.11-5.22-4.61-4.66-5.19,3.07c-1.75-1.22-3.64-2.22-5.64-2.98l-.46-5.96-6.54-1.14-2.46,5.41c-2.11.01-4.2.28-6.25.8Zm6.36,8.94c9.07,0,16.43,7.35,16.43,16.43s-7.35,16.43-16.43,16.43-16.43-7.35-16.43-16.43,7.35-16.43,16.43-16.43h0Z"/>
      <path class="cls-7" d="m187.07,191.05l-3.74-4.54-5.96,2.78,1.07,5.78c-1.77,1.24-3.37,2.7-4.77,4.34l-5.67-1.56-3.3,5.7,4.21,4.14c-.74,2.03-1.23,4.15-1.45,6.3l-5.57,1.98.56,6.55,5.9.98c.58,2.06,1.41,4.04,2.49,5.88l-3.5,4.89,4.22,5.03,5.48-2.63c1.64,1.33,3.43,2.45,5.34,3.35l-.09,6.1,6.36,1.71,3.01-5.39c.61.07,1.23.07,1.85.07,1.45,0,2.91-.13,4.34-.38l3.48,5.13,6.17-2.26-.64-6.19c1.77-1.07,3.42-2.33,4.9-3.77l5.78,2.21,3.76-5.39-4.06-4.7c.86-1.89,1.49-3.87,1.88-5.91l6-1.52v-6.58l-5.96-1.45c-.65-3.57-2.04-6.97-4.08-9.98l3.11-5.22-4.61-4.66-5.19,3.07c-1.75-1.22-3.64-2.22-5.64-2.98l-.46-5.96-6.54-1.14-2.46,5.41c-2.11.01-4.2.28-6.25.8Zm6.36,8.94c9.07,0,16.43,7.35,16.43,16.43s-7.35,16.43-16.43,16.43-16.43-7.35-16.43-16.43,7.35-16.43,16.43-16.43h0Z"/>
      <path class="cls-17" d="m155.04,302.45l3.48,5.12,6.17-2.24-.64-6.2c1.78-1.06,3.42-2.32,4.9-3.77l5.78,2.21,3.77-5.38-4.08-4.7c.86-1.89,1.49-3.88,1.88-5.93l6-1.45v-6.58l-5.96-1.45c-.65-3.57-2.04-6.97-4.08-9.98l3.08-5.23-4.66-4.64-5.19,3.08c-1.75-1.23-3.64-2.23-5.64-2.99l-.46-5.94-6.04-1.07v15.3c6.84,1.18,12.2,6.54,13.38,13.38,1.54,8.93-4.45,17.42-13.38,18.96v9.83c.53-.06,1.07-.12,1.66-.33Z"/>
      <path class="cls-7" d="m155.04,298.56l3.48,5.12,6.17-2.24-.64-6.2c1.78-1.06,3.42-2.32,4.9-3.77l5.78,2.21,3.77-5.38-4.08-4.7c.86-1.89,1.49-3.88,1.88-5.93l6-1.45v-6.58l-5.96-1.45c-.65-3.57-2.04-6.97-4.08-9.98l3.08-5.23-4.66-4.64-5.19,3.08c-1.75-1.23-3.64-2.23-5.64-2.99l-.46-5.94-6.04-1.07v15.3c6.84,1.18,12.2,6.54,13.38,13.38,1.54,8.93-4.45,17.42-13.38,18.96v9.83c.53-.06,1.07-.12,1.66-.33Z"/>
      <path class="cls-7" d="m191.32,112.31l-2.5-5.51-6.66,1.16-.47,6.07c-2.03.77-3.96,1.79-5.75,3.04l-5.29-3.12-4.7,4.74,3.17,5.32c-2.07,3.06-3.49,6.53-4.16,10.17l-6.07,1.47v6.7l6.12,1.55c.39,2.08,1.04,4.1,1.92,6.03l-4.14,4.79,3.83,5.5,5.89-2.25c1.51,1.47,3.19,2.76,5,3.85l-.65,6.31,6.29,2.3,3.55-5.23c1.46.25,2.94.38,4.42.38.63,0,1.27,0,1.89-.07l3.06,5.5,6.48-1.74-.09-6.22c1.94-.92,3.77-2.07,5.44-3.42l5.58,2.68,4.3-5.13-3.57-4.98c1.09-1.89,1.94-3.9,2.53-6l6.01-1,.57-6.68-5.67-2.02c-.22-2.19-.72-4.35-1.47-6.42l4.29-4.21-3.36-5.81-5.78,1.59c-1.43-1.67-3.06-3.16-4.86-4.42l1.09-5.89-6.07-2.83-3.82,4.63c-2.08-.53-4.22-.8-6.37-.81Zm-.12,15.48c6.17,0,11.18,5.01,11.18,11.18s-5.01,11.18-11.18,11.18-11.18-5.01-11.18-11.18,5.01-11.18,11.18-11.18h0Z"/>
      <path class="cls-7" d="m281.15,219.79v-6.26c-5.69-.98-9.5-6.39-8.52-12.07.75-4.36,4.17-7.77,8.52-8.52v-9.74l-3.85.68-.29,3.78c-1.27.49-2.48,1.13-3.59,1.91l-3.31-1.96-2.97,2.96,1.96,3.33c-1.3,1.91-2.18,4.08-2.6,6.35l-3.79.92v4.19l3.82.92c.25,1.3.65,2.57,1.2,3.78l-2.6,2.99,2.4,3.43,3.68-1.41c.94.92,1.99,1.73,3.12,2.4l-.41,3.95,3.93,1.43,2.22-3.26c.38.14.72.18,1.06.21Z"/>
      <circle class="cls-6" cx="191.11" cy="138.97" r="16.22"/>
      <circle class="cls-6" cx="193" cy="216.41" r="21.21"/>
      <circle class="cls-8" cx="245.41" cy="273.65" r="12.81"/>
    </g>
  </g>
  <g id="Character_1" data-name="Character 1">
    <g>
      <path class="cls-17" d="m61.91,102.19c3.2,2.16,6.79,3.84,9.47,6.62,3.15,3.26,4.74,7.82,4.97,12.34.22,4.53-.84,9.04-2.46,13.27-.95,2.5-2.15,5-4.16,6.77-1.89,1.67-4.35,2.57-6.82,3.06-4.83.97-9.88.52-14.6-.88-4.16-1.24-8.16-3.28-11.16-6.42-2.39-2.5-4.06-5.59-5.43-8.76-2.12-4.92-3.58-10.14-4.09-15.46-.49-5.15-.11-10.34.28-15.5.32-4.26.64-8.52.96-12.77.18-2.32-.09-8.33,2.84-9.29,2.42-.79,6.17,3.23,7.8,4.69,5.1,4.58,9.25,10.07,13.98,15.01,2.58,2.69,5.32,5.24,8.41,7.32Z"/>
      <path class="cls-15" d="m48.09,121.18s11.91.88,17.94-2.87c6.03-3.75,19.7,11.53,19.7,11.53l-4.71,79.94s-11.98,2.53-19.37-.99c-7.4-3.52-11.03-3.35-12.8-7.57-1.77-4.22-1.8-11.23-9.44-17.34-7.64-6.1-7.65-9.28-10.01-13.13-2.37-3.85-10.01-9.21-10.54-13.47-.53-4.26.26-14.99.26-14.99l14.6-11.36s3.58-12.61,14.38-9.75Z"/>
      <path class="cls-16" d="m57.41,132.55c.46,5.25,1.57,10.45,3.29,15.43-6.32.16-12.6,1.89-18.11,4.99,4.25,6.45,9.58,12.19,15.69,16.91,1.41-1.8,3.44-3.11,5.67-3.63.86-.2,1.76-.29,2.6-.57.8-.27,1.53-.7,2.24-1.16,7.84-5.1,12.91-14.2,13.14-23.55.13-5.52-1.33-10.99-3.61-16.02-1.85-4.09-4.68-8.27-9.04-9.36-2.27-.57-4.67-.21-6.95.31-1.78.41-4.4.74-5.95,1.74-2.42,1.55-1.74,1.04-.94,3.71,1.13,3.77,1.63,7.27,1.97,11.21Z"/>
      <path class="cls-2" d="m40.26,82.66s6.3,10.89,8.14,16.2c1.84,5.31,1.43,11.26,1.05,13.39,0,0,.36,3.67,2.73,8.24l3.87.68s5.35,11.23,5.67,27.79c0,0-9.12-11.54-15.44-14.56-6.32-3.02-5.02-2.69-5.02-2.69,0,0-5.16-9.1-7.86-11.89-2.7-2.79-14.37,6.29-14.37,6.29l-12.14-19.39,5.99-11.3,8.13-6.31,7.96-6.47h11.29Z"/>
      <g>
        <path class="cls-1" d="m88.61,356.54c3.97,5.15,9.98,8.69,16.41,9.64,1.51.23,3.43.1,4.06-1.29.28-.61.22-1.32.1-1.98-1.46-8.66-9.74-14.29-14.18-21.87-1.26-2.14-2.92-7.67-5.66-7.27-1.24.18-4.69,3.95-5.31,5.16-2.66,5.16,1.44,13.53,4.58,17.61Z"/>
        <path class="cls-1" d="m84.04,338.94s.67,9.5,6.71,15.04c6.04,5.54,7.66,8.66,18.44,8.94"/>
      </g>
      <g>
        <path class="cls-1" d="m116.23,321.57s-1.89,10.79,2.21,16.22,8.2,4.27,14.83,5.48c4.4.81,8.06,3.95,12.74,2.79,4.19-1.04,1.58-4.08-.42-5.75-4.41-3.69-9.61-6.32-14.05-9.97-7.73-6.36-6.38-11.97-6.38-11.97l-8.93,3.21Z"/>
        <path class="cls-8" d="m116.99,335.07c1.78,1.15,2.76,2.63,4.6,3.66,2.65,1.48,5.88,1.26,8.9,1.55,1.77.17,3.53.53,5.23,1.07,1.84.59,3.64,1.39,5.56,1.63,1.86.23,3.79-.1,5.46-.94"/>
      </g>
      <path class="cls-17" d="m62.81,208.81s-7.85,26.29,0,53.76c7.85,27.47.39,44.34,17.66,78.48,0,0,8.08,6.67,13.65-3.14,0,0-1.58-38.06-4.28-47.09-2.7-9.03,8.89-28.73,5.06-47.52-3.83-18.8-12.07-34.49-12.07-34.49,0,0-12.95,2.75-20.01,0Z"/>
      <path class="cls-17" d="m101.45,273.11s5.75,38.21,12.93,52.57c0,0,8.33,6.03,13.5-1.72,0,0,.57-63.49-4.6-68.37-5.17-4.88-21.83,17.52-21.83,17.52Z"/>
      <g>
        <path class="cls-2" d="m191.41,23.72l33.97,224.72c.71,4.71-2.53,9.1-7.24,9.81l-122.02,18.44c-2.3.35-4.53-.25-6.29-1.5-1.84-1.31-3.16-3.33-3.53-5.74L52.35,44.74c-.71-4.71,2.53-9.1,7.24-9.81l122.02-18.44c3.57-.54,6.97,1.2,8.7,4.12.56.93.94,1.97,1.11,3.11Z"/>
        <rect class="cls-17" x="165.13" y="40.77" width="16.16" height="1.39" transform="translate(-4.25 26.35) rotate(-8.6)"/>
        <rect class="cls-17" x="164.53" y="36.82" width="16.16" height="1.39" transform="translate(-3.67 26.22) rotate(-8.6)"/>
        <rect class="cls-17" x="163.94" y="32.88" width="16.16" height="1.39" transform="translate(-3.09 26.09) rotate(-8.6)"/>
        <path class="cls-15" d="m188.1,186l1.62,10.72c.49,3.24-1.73,6.25-4.97,6.74l-73.24,11.07c-3.24.49-6.26-1.73-6.75-4.97l-1.62-10.72c-.49-3.24,1.74-6.26,4.98-6.75l73.24-11.07c3.24-.49,6.25,1.74,6.74,4.98Z"/>
        <g>
          <path class="cls-17" d="m134.26,196.45l-1.14,6.62-1.24.19-2.26-4.43-.88,4.91-1.25.19-3.04-5.99,1.22-.18,2.29,4.56.91-5.04,1.08-.16,2.32,4.58.88-5.06,1.12-.17Z"/>
          <path class="cls-17" d="m139.9,199.96l-3.77.57c.24.68.89,1.04,1.73.92.54-.08.94-.32,1.23-.72l.71.6c-.36.58-.99.95-1.82,1.08-1.61.24-2.81-.63-3.03-2.07-.22-1.43.68-2.62,2.11-2.83,1.4-.21,2.58.61,2.81,2.12.01.09.03.23.03.34Zm-3.9-.18l2.73-.41c-.19-.68-.8-1.08-1.54-.96-.73.11-1.19.66-1.19,1.38Z"/>
          <path class="cls-17" d="m140.3,195.16l1.13-.17,1.01,6.68-1.13.17-1.01-6.68Z"/>
          <path class="cls-17" d="m143.15,199.1c-.22-1.44.71-2.62,2.23-2.85.94-.14,1.74.13,2.22.81l-.79.64c-.36-.42-.82-.56-1.3-.49-.83.13-1.37.8-1.23,1.72.14.94.86,1.41,1.69,1.28.48-.07.88-.34,1.1-.85l.94.37c-.26.78-.95,1.29-1.88,1.44-1.52.23-2.76-.63-2.98-2.07Z"/>
          <path class="cls-17" d="m148.32,198.32c-.22-1.44.71-2.62,2.19-2.85,1.5-.23,2.72.63,2.94,2.07.22,1.44-.7,2.63-2.19,2.86-1.48.22-2.71-.64-2.93-2.08Zm3.99-.6c-.14-.92-.84-1.41-1.66-1.29-.81.12-1.33.8-1.2,1.72.14.92.84,1.41,1.65,1.29.82-.12,1.34-.8,1.21-1.72Z"/>
          <path class="cls-17" d="m162.51,195.81l.42,2.76-1.13.17-.39-2.61c-.13-.86-.59-1.21-1.27-1.11-.74.11-1.18.67-1.03,1.63l.37,2.44-1.13.17-.39-2.61c-.13-.86-.59-1.21-1.27-1.11-.75.11-1.18.67-1.03,1.63l.37,2.44-1.13.17-.73-4.81,1.07-.16.09.61c.29-.49.82-.81,1.48-.91.7-.11,1.33.07,1.74.56.31-.55.91-.96,1.68-1.07,1.16-.17,2.07.36,2.29,1.81Z"/>
          <path class="cls-17" d="m168.61,195.62l-3.77.57c.24.68.89,1.04,1.73.92.54-.08.94-.32,1.23-.72l.71.6c-.35.58-.99.95-1.82,1.08-1.61.24-2.81-.63-3.03-2.07s.68-2.62,2.11-2.83c1.4-.21,2.58.62,2.81,2.12.01.09.03.23.03.34Zm-3.9-.18l2.73-.41c-.19-.68-.8-1.08-1.54-.96-.73.11-1.19.66-1.19,1.38Z"/>
        </g>
        <rect class="cls-17" x="93.25" y="227" width="115.95" height="2.07" transform="translate(-32.38 25.16) rotate(-8.6)"/>
        <rect class="cls-17" x="94.09" y="232.57" width="115.95" height="2.07" transform="translate(-33.21 25.35) rotate(-8.6)"/>
        <rect class="cls-17" x="94.94" y="238.15" width="115.95" height="2.07" transform="translate(-34.03 25.54) rotate(-8.6)"/>
        <rect class="cls-17" x="95.78" y="243.72" width="115.95" height="2.07" transform="translate(-34.86 25.73) rotate(-8.6)"/>
        <path class="cls-16" d="m188.1,186l1.62,10.72c.49,3.24-1.73,6.25-4.97,6.74l-73.24,11.07c-3.24.49-6.26-1.73-6.75-4.97l-.02-.12c13.48.15,60.55-1.29,75.68-28.28l.94-.14c3.24-.49,6.25,1.74,6.74,4.98Z"/>
        <path class="cls-9" d="m188.1,186l1.62,10.72c.49,3.24-1.73,6.25-4.97,6.74l-73.24,11.07c-3.24.49-6.26-1.73-6.75-4.97l-1.62-10.72c-.49-3.24,1.74-6.26,4.98-6.75l73.24-11.07c3.24-.49,6.25,1.74,6.74,4.98Z"/>
        <g>
          <path class="cls-17" d="m135.35,169.52c.15.97-.52,1.88-1.49,2.02-.97.15-1.88-.52-2.02-1.49-.15-.97.52-1.88,1.49-2.02.97-.15,1.88.52,2.02,1.49Z"/>
          <path class="cls-17" d="m143.74,168.25c.15.97-.52,1.88-1.49,2.02s-1.88-.52-2.02-1.49c-.15-.97.52-1.88,1.49-2.02.97-.15,1.88.52,2.02,1.49Z"/>
          <path class="cls-17" d="m152.14,166.98c.15.97-.52,1.88-1.49,2.02-.97.15-1.88-.52-2.02-1.49-.15-.97.52-1.88,1.49-2.02.97-.15,1.88.52,2.02,1.49Z"/>
        </g>
        <rect class="cls-1" x="65.74" y="44.18" width="63.61" height="8.68" rx="3.74" ry="3.74" transform="translate(-6.16 15.12) rotate(-8.6)"/>
        <line class="cls-9" x1="71.99" y1="54.66" x2="71.34" y2="50.38"/>
        <g>
          <g>
            <rect class="cls-15" x="75.76" y="63.52" width="115.76" height="98.7" transform="translate(-15.37 21.24) rotate(-8.6)"/>
            <rect class="cls-4" x="75.76" y="63.52" width="115.76" height="98.7" transform="translate(-15.37 21.24) rotate(-8.6)"/>
            <rect class="cls-8" x="75.76" y="63.52" width="115.76" height="98.7" transform="translate(-15.37 21.24) rotate(-8.6)"/>
          </g>
          <circle class="cls-7" cx="166.1" cy="80.77" r="11.18" transform="translate(3.01 167.46) rotate(-53.93)"/>
          <g>
            <path class="cls-15" d="m190.06,98.86l8.19,54.15-114.46,17.3-5.12-33.86c3.5-7.95,8.71-17.21,14.8-19.9,11.28-4.99,22.89,28.27,44.31,22.84,21.42-5.43,25.41-40.29,52.29-40.53Z"/>
            <path class="cls-16" d="m190.06,98.86l8.19,54.15-114.46,17.3-5.12-33.86c3.5-7.95,8.71-17.21,14.8-19.9,11.28-4.99,22.89,28.27,44.31,22.84,21.42-5.43,25.41-40.29,52.29-40.53Z"/>
            <path class="cls-8" d="m190.06,98.86l8.19,54.15-114.46,17.3-5.12-33.86c3.5-7.95,8.71-17.21,14.8-19.9,11.28-4.99,22.89,28.27,44.31,22.84,21.42-5.43,25.41-40.29,52.29-40.53Z"/>
          </g>
        </g>
        <path class="cls-16" d="m191.41,23.72l33.97,224.72c.71,4.71-2.53,9.1-7.24,9.81l-122.02,18.44c-2.3.35-4.53-.25-6.29-1.5,27.19-24.11,112.9-112.12,100.46-254.59.56.93.94,1.97,1.11,3.11Z"/>
        <path class="cls-8" d="m191.41,23.72l33.97,224.72c.71,4.71-2.53,9.1-7.24,9.81l-122.02,18.44c-2.3.35-4.53-.25-6.29-1.5-1.84-1.31-3.16-3.33-3.53-5.74L52.35,44.74c-.71-4.71,2.53-9.1,7.24-9.81l122.02-18.44c3.57-.54,6.97,1.2,8.7,4.12.56.93.94,1.97,1.11,3.11Z"/>
      </g>
      <path class="cls-9" d="m41.52,84.5s6.61,13.01,8.26,17.77c1.65,4.76-.03,12.62-4.19,16.16-4.15,3.54-8.8,3.31-13.97.76-5.16-2.56-10.4-6.45-10.41-6.46-.1-.08-.93.08-1.08.08-1.02-.01-5.04-1.56-6.4-4.09-3.38-6.26,4.08-4.03,5.58-3"/>
      <path class="cls-9" d="m40.26,97.85c.69,1.6,1.88,2.99,3.36,3.92.6.37,1.29.71,1.6,1.35.34.67.15,1.51-.28,2.13s-1.06,1.06-1.67,1.49"/>
      <path class="cls-9" d="m37.45,111.73s2.35,1.15,4.72.05"/>
      <path class="cls-17" d="m35.95,101.4c.41.87.44,1.73.07,1.9s-1.02-.38-1.43-1.26c-.41-.87-.44-1.73-.07-1.9.38-.18,1.02.39,1.43,1.26Z"/>
      <path class="cls-17" d="m43.57,96.27c.41.87.44,1.73.07,1.9-.38.18-1.02-.38-1.43-1.26-.41-.87-.44-1.73-.07-1.9s1.02.39,1.43,1.26Z"/>
      <path class="cls-9" d="m33.71,96.37s-3.15,0-3.91,3.83"/>
      <path class="cls-9" d="m39.34,92.98s1.13-2.53,3.23-1.04"/>
      <path class="cls-17" d="m18.76,105.42c.18.13,9.63-4.88,10.73-19.09,0,0,5.42,4.14,14.24.69,0,0-7.25-14.95-17.88-12.89-10.63,2.06-19.89,9.09-20.25,21.53-.26,8.85,1.61,17.66,1.68,26.52.04,4.48-.25,9.04-1.59,13.34-2.25,7.21-7.33,12.04-5.15,20.19,1.62,6.03,6.96,13,13.41,12.16,2.72-.35,8.95-1.94,9.99-3.19-2.18-3.25-3.14-6.23-3.22-7.41-.52-7.32,1.17-10.11,1.17-10.11l16.93-19.54-4.71-7.39-12.88-7.5s-5.34.61-8.27-6.01c-.55-3.93,5.81-1.31,5.81-1.31Z"/>
      <path class="cls-9" d="m58.63,170.75s-12.89-9.85-18.58-20.79"/>
      <path class="cls-9" d="m66.03,166.67c-.34-.92-1.68-1.01-2.53-.52s-1.41,1.36-2.19,1.96c-.58.45-1.27.76-1.74,1.32-.52.61-.7,1.44-.84,2.23-.57,3.35-.62,6.79-.14,10.16"/>
      <path class="cls-9" d="m54.69,181.83c.27-2.61.92-5.17,1.91-7.6"/>
      <path class="cls-9" d="m71.34,184.75c1.12.93,1.14,2.88.04,3.83-.41.36-.93.57-1.39.87-1.41.92-2.19,2.57-3.48,3.65-1.78,1.5-4.75,1.63-6.32-.1-1.32-1.45-1.64-4.54-1.57-6.5"/>
      <path class="cls-9" d="m59.44,193.08c-8.39.99-35.5-28.4-35.5-28.4-4.05-4.96-4.13-12.59-1.11-18.27,2.89-5.43,8.6-8.83,11.94-14"/>
      <path class="cls-9" d="m34.82,120.87c2.41,3.1,4.26,5.99,5.22,9.79"/>
      <path class="cls-9" d="m49.45,112.25c-.03,4.11,1.73,7.58,4.68,10.5"/>
      <path class="cls-9" d="m36.43,129.44c-2,2.07-1.16,6.39,1.35,7.8,2.66,1.5,6.05.17,9.01.89.41.1.82.24,1.11.54.53.52.55,1.35.57,2.1.04,1.57.31,3.34,1.6,4.23.79.55,1.8.64,2.73.86,5.11,1.19,8.55,4.32,11.15,8.88"/>
      <path class="cls-9" d="m39.4,130.92c11.71,4.66,21.26,14.49,25.57,26.33"/>
      <path class="cls-9" d="m28.84,169.96c2.97,9.71,13.93,14.46,17.32,24.03.86,2.43,1.22,5.1,2.68,7.23,1.87,2.72,5.15,4.03,8.24,5.2,2.1.79,4.53,2.57,6.64,3.36"/>
      <path class="cls-9" d="m73.54,210.25c-2.64-.33-4.69-2.41-6.33-4.5-1.64-2.09-3.2-4.4-5.57-5.6"/>
      <path class="cls-9" d="m52.39,120.77c3.69.68,6.97.39,10.48-.94"/>
      <path class="cls-9" d="m56.45,121.18c2.88,8.77,5.87,19.45,5.22,28.79"/>
      <g>
        <path class="cls-2" d="m63.96,168.37s.4,11.98,5.65,17.11c0,0,12.96-12.83,18.48-20.77,5.53-7.93,11.68-17.35,13.49-23.93s-2.79-8.36-2.79-8.36c0,0-1.38-3.74-2.79-3.32s-3.75,7.29-3.75,7.29c0,0-1.47-3.54-4.37,1.63-2.91,5.16-4.3,7.52-2.29,12.22l-11.42,11.14-10.2,7Z"/>
        <g>
          <path class="cls-9" d="m90.63,140.71s2.47-6.82,0-5.35c-2.47,1.47-4.79,5.49-5.66,7.82s.61,7.05.61,7.05c-6.17,8.23-15.84,14.59-21.62,18.14"/>
          <path class="cls-9" d="m90.94,139.79s3.46-9.52,5.06-10.68,1.6,2.61,1.6,2.61c0,0,2.47,1.18,2.9,2.62.44,1.44,1.6,2.51,1.31,5.46s-7.68,16.01-7.68,16.01c-2.42,5.13-14.79,20.37-24.52,29.67"/>
          <path class="cls-9" d="m97.6,131.72s-.58,4.31-1.06,5.63"/>
        </g>
      </g>
      <path class="cls-9" d="m64.27,168.05c-.51.34-.56,1.05-.55,1.66.17,6.3,2.6,12.51,6.75,17.25"/>
      <path class="cls-10" d="m11.6,108.37c1.92,7.06,2.53,14.49,1.77,21.77-.58,5.62-1.97,11.19-1.78,16.84.19,5.65,2.31,11.65,7.1,14.65"/>
      <path class="cls-10" d="m16.12,100.26c3.09-5.45,5.74-11.16,7.9-17.05"/>
      <path class="cls-10" d="m12.56,99.3c2.44-5.85,1.93-12.54,3.91-18.56"/>
      <path class="cls-17" d="m36.81,120.94s6.68,3.15,10.05,1.8c3.36-1.35,1.95-8.83,1.95-8.83,0,0-3.37,8.43-12,7.03Z"/>
    </g>
  </g>
</svg>